<svg version="1.1" xmlns="http://www.w3.org/2000/svg" xmlns:xlink="http://www.w3.org/1999/xlink" width="1500" height="800" style="width: 1500px; height: 800px;"><defs><clipPath id="pyuFfTPxmulk"><path fill="none" stroke="none" d=" M 468 5 L 1495 5 L 1495 774 L 468 774 L 468 5 Z"/></clipPath><clipPath id="dlUyvfJBNKHW"><path fill="none" stroke="none" d=" M 468 5 L 1495 5 L 1495 774 L 468 774 L 468 5 Z"/></clipPath></defs><g><g transform="scale(1,1) translate(0.5,0.5)"><rect fill="#FFFFFF" stroke="none" x="0" y="0" width="1500" height="800"/><rect fill="#ffffff" stroke="none" x="0" y="0" width="1500" height="800"/><rect fill="#FFFFFF" stroke="none" x="468" y="5" width="1027" height="769"/><rect fill="#ffffff" stroke="none" x="468" y="5" width="1027" height="769"/><g><rect fill="none" stroke="#e5e5e5" x="468" y="5" width="1027" height="769" stroke-linejoin="bevel" stroke-miterlimit="10"/></g><g clip-path="url(#pyuFfTPxmulk)"><g><g><path fill="none" stroke="#e5e5e5" paint-order="fill stroke markers" d=" M 515 774 L 515 5" stroke-linejoin="bevel" stroke-miterlimit="10"/><path fill="none" stroke="#e5e5e5" paint-order="fill stroke markers" d=" M 672 774 L 672 5" stroke-linejoin="bevel" stroke-miterlimit="10"/><path fill="none" stroke="#e5e5e5" paint-order="fill stroke markers" d=" M 830 774 L 830 5" stroke-linejoin="bevel" stroke-miterlimit="10"/><path fill="none" stroke="#e5e5e5" paint-order="fill stroke markers" d=" M 987 774 L 987 5" stroke-linejoin="bevel" stroke-miterlimit="10"/><path fill="none" stroke="#e5e5e5" paint-order="fill stroke markers" d=" M 1145 774 L 1145 5" stroke-linejoin="bevel" stroke-miterlimit="10"/><path fill="none" stroke="#e5e5e5" paint-order="fill stroke markers" d=" M 1302 774 L 1302 5" stroke-linejoin="bevel" stroke-miterlimit="10"/><path fill="none" stroke="#e5e5e5" paint-order="fill stroke markers" d=" M 1460 774 L 1460 5" stroke-linejoin="bevel" stroke-miterlimit="10"/></g><g><path fill="none" stroke="#e5e5e5" paint-order="fill stroke markers" d=" M 468 736 L 1495 736" stroke-linejoin="bevel" stroke-miterlimit="10"/><path fill="none" stroke="#e5e5e5" paint-order="fill stroke markers" d=" M 468 659 L 1495 659" stroke-linejoin="bevel" stroke-miterlimit="10"/><path fill="none" stroke="#e5e5e5" paint-order="fill stroke markers" d=" M 468 582 L 1495 582" stroke-linejoin="bevel" stroke-miterlimit="10"/><path fill="none" stroke="#e5e5e5" paint-order="fill stroke markers" d=" M 468 505 L 1495 505" stroke-linejoin="bevel" stroke-miterlimit="10"/><path fill="none" stroke="#e5e5e5" paint-order="fill stroke markers" d=" M 468 428 L 1495 428" stroke-linejoin="bevel" stroke-miterlimit="10"/><path fill="none" stroke="#e5e5e5" paint-order="fill stroke markers" d=" M 468 351 L 1495 351" stroke-linejoin="bevel" stroke-miterlimit="10"/><path fill="none" stroke="#e5e5e5" paint-order="fill stroke markers" d=" M 468 274 L 1495 274" stroke-linejoin="bevel" stroke-miterlimit="10"/><path fill="none" stroke="#e5e5e5" paint-order="fill stroke markers" d=" M 468 197 L 1495 197" stroke-linejoin="bevel" stroke-miterlimit="10"/><path fill="none" stroke="#e5e5e5" paint-order="fill stroke markers" d=" M 468 120 L 1495 120" stroke-linejoin="bevel" stroke-miterlimit="10"/><path fill="none" stroke="#e5e5e5" paint-order="fill stroke markers" d=" M 468 43 L 1495 43" stroke-linejoin="bevel" stroke-miterlimit="10"/></g><g><path fill="none" stroke="none"/><rect fill="#1f77b4" stroke="none" x="514.6818181818182" y="704.79" width="173.37351800333045" height="61.51999999999998"/><path fill="none" stroke="#1f77b4" paint-order="fill stroke markers" d=" M 514.6818181818182 704.79 L 688.0553361851487 704.79 L 688.0553361851487 766.31 L 514.6818181818182 766.31 L 514.6818181818182 704.79 Z" stroke-linejoin="bevel" stroke-miterlimit="10"/><rect fill="#1f77b4" stroke="none" x="514.6818181818182" y="627.89" width="208.53031798737618" height="61.51999999999998"/><path fill="none" stroke="#1f77b4" paint-order="fill stroke markers" d=" M 514.6818181818182 627.89 L 723.2121361691944 627.89 L 723.2121361691944 689.41 L 514.6818181818182 689.41 L 514.6818181818182 627.89 Z" stroke-linejoin="bevel" stroke-miterlimit="10"/><rect fill="#1f77b4" stroke="none" x="514.6818181818182" y="550.99" width="215.06067586028098" height="61.51999999999998"/><path fill="none" stroke="#1f77b4" paint-order="fill stroke markers" d=" M 514.6818181818182 550.99 L 729.7424940420992 550.99 L 729.7424940420992 612.51 L 514.6818181818182 612.51 L 514.6818181818182 550.99 Z" stroke-linejoin="bevel" stroke-miterlimit="10"/><rect fill="#1f77b4" stroke="none" x="514.6818181818182" y="474.0899999999999" width="225.3958140137804" height="61.520000000000095"/><path fill="none" stroke="#1f77b4" paint-order="fill stroke markers" d=" M 514.6818181818182 474.0899999999999 L 740.0776321955987 474.0899999999999 L 740.0776321955987 535.61 L 514.6818181818182 535.61 L 514.6818181818182 474.0899999999999 Z" stroke-linejoin="bevel" stroke-miterlimit="10"/><rect fill="#1f77b4" stroke="none" x="514.6818181818182" y="397.18999999999994" width="271.061054772802" height="61.520000000000095"/><path fill="none" stroke="#1f77b4" paint-order="fill stroke markers" d=" M 514.6818181818182 397.18999999999994 L 785.7428729546202 397.18999999999994 L 785.7428729546202 458.71000000000004 L 514.6818181818182 458.71000000000004 L 514.6818181818182 397.18999999999994 Z" stroke-linejoin="bevel" stroke-miterlimit="10"/><rect fill="#1f77b4" stroke="none" x="514.6818181818182" y="320.28999999999996" width="302.05859184141514" height="61.51999999999998"/><path fill="none" stroke="#1f77b4" paint-order="fill stroke markers" d=" M 514.6818181818182 320.28999999999996 L 816.7404100232334 320.28999999999996 L 816.7404100232334 381.80999999999995 L 514.6818181818182 381.80999999999995 L 514.6818181818182 320.28999999999996 Z" stroke-linejoin="bevel" stroke-miterlimit="10"/><rect fill="#1f77b4" stroke="none" x="514.6818181818182" y="243.39" width="338.62544497292765" height="61.51999999999998"/><path fill="none" stroke="#1f77b4" paint-order="fill stroke markers" d=" M 514.6818181818182 243.39 L 853.3072631547459 243.39 L 853.3072631547459 304.90999999999997 L 514.6818181818182 304.90999999999997 L 514.6818181818182 243.39 Z" stroke-linejoin="bevel" stroke-miterlimit="10"/><rect fill="#1f77b4" stroke="none" x="514.6818181818182" y="166.48999999999995" width="365.7788148015196" height="61.520000000000095"/><path fill="none" stroke="#1f77b4" paint-order="fill stroke markers" d=" M 514.6818181818182 166.48999999999995 L 880.4606329833379 166.48999999999995 L 880.4606329833379 228.01000000000005 L 514.6818181818182 228.01000000000005 L 514.6818181818182 166.48999999999995 Z" stroke-linejoin="bevel" stroke-miterlimit="10"/><rect fill="#1f77b4" stroke="none" x="514.6818181818182" y="89.58999999999986" width="646.2927398366687" height="61.520000000000095"/><path fill="none" stroke="#1f77b4" paint-order="fill stroke markers" d=" M 514.6818181818182 89.58999999999986 L 1160.974558018487 89.58999999999986 L 1160.974558018487 151.10999999999996 L 514.6818181818182 151.10999999999996 L 514.6818181818182 89.58999999999986 Z" stroke-linejoin="bevel" stroke-miterlimit="10"/><rect fill="#1f77b4" stroke="none" x="514.6818181818182" y="12.68999999999994" width="933.6363636363637" height="61.51999999999998"/><path fill="none" stroke="#1f77b4" paint-order="fill stroke markers" d=" M 514.6818181818182 12.68999999999994 L 1448.318181818182 12.68999999999994 L 1448.318181818182 74.20999999999992 L 514.6818181818182 74.20999999999992 L 514.6818181818182 12.68999999999994 Z" stroke-linejoin="bevel" stroke-miterlimit="10"/></g></g></g><g clip-path="url(#dlUyvfJBNKHW)"><g/></g><g><g fill="#444444"><path fill="none" stroke="black" paint-order="fill stroke markers" d=" M 468 774 L 1495 774" stroke-linejoin="bevel" stroke-miterlimit="10"/><path fill="none" stroke="black" paint-order="fill stroke markers" d=" M 515 780 L 515 772" stroke-linejoin="bevel" stroke-miterlimit="10"/><path fill="none" stroke="black" paint-order="fill stroke markers" d=" M 672 780 L 672 772" stroke-linejoin="bevel" stroke-miterlimit="10"/><path fill="none" stroke="black" paint-order="fill stroke markers" d=" M 830 780 L 830 772" stroke-linejoin="bevel" stroke-miterlimit="10"/><path fill="none" stroke="black" paint-order="fill stroke markers" d=" M 987 780 L 987 772" stroke-linejoin="bevel" stroke-miterlimit="10"/><path fill="none" stroke="black" paint-order="fill stroke markers" d=" M 1145 780 L 1145 772" stroke-linejoin="bevel" stroke-miterlimit="10"/><path fill="none" stroke="black" paint-order="fill stroke markers" d=" M 1302 780 L 1302 772" stroke-linejoin="bevel" stroke-miterlimit="10"/><path fill="none" stroke="black" paint-order="fill stroke markers" d=" M 1460 780 L 1460 772" stroke-linejoin="bevel" stroke-miterlimit="10"/><path fill="none" stroke="black" paint-order="fill stroke markers" d=" M 483 778 L 483 774" stroke-linejoin="bevel" stroke-miterlimit="10"/><path fill="none" stroke="black" paint-order="fill stroke markers" d=" M 515 778 L 515 774" stroke-linejoin="bevel" stroke-miterlimit="10"/><path fill="none" stroke="black" paint-order="fill stroke markers" d=" M 546 778 L 546 774" stroke-linejoin="bevel" stroke-miterlimit="10"/><path fill="none" stroke="black" paint-order="fill stroke markers" d=" M 578 778 L 578 774" stroke-linejoin="bevel" stroke-miterlimit="10"/><path fill="none" stroke="black" paint-order="fill stroke markers" d=" M 609 778 L 609 774" stroke-linejoin="bevel" stroke-miterlimit="10"/><path fill="none" stroke="black" paint-order="fill stroke markers" d=" M 641 778 L 641 774" stroke-linejoin="bevel" stroke-miterlimit="10"/><path fill="none" stroke="black" paint-order="fill stroke markers" d=" M 672 778 L 672 774" stroke-linejoin="bevel" stroke-miterlimit="10"/><path fill="none" stroke="black" paint-order="fill stroke markers" d=" M 704 778 L 704 774" stroke-linejoin="bevel" stroke-miterlimit="10"/><path fill="none" stroke="black" paint-order="fill stroke markers" d=" M 735 778 L 735 774" stroke-linejoin="bevel" stroke-miterlimit="10"/><path fill="none" stroke="black" paint-order="fill stroke markers" d=" M 767 778 L 767 774" stroke-linejoin="bevel" stroke-miterlimit="10"/><path fill="none" stroke="black" paint-order="fill stroke markers" d=" M 798 778 L 798 774" stroke-linejoin="bevel" stroke-miterlimit="10"/><path fill="none" stroke="black" paint-order="fill stroke markers" d=" M 830 778 L 830 774" stroke-linejoin="bevel" stroke-miterlimit="10"/><path fill="none" stroke="black" paint-order="fill stroke markers" d=" M 861 778 L 861 774" stroke-linejoin="bevel" stroke-miterlimit="10"/><path fill="none" stroke="black" paint-order="fill stroke markers" d=" M 893 778 L 893 774" stroke-linejoin="bevel" stroke-miterlimit="10"/><path fill="none" stroke="black" paint-order="fill stroke markers" d=" M 924 778 L 924 774" stroke-linejoin="bevel" stroke-miterlimit="10"/><path fill="none" stroke="black" paint-order="fill stroke markers" d=" M 956 778 L 956 774" stroke-linejoin="bevel" stroke-miterlimit="10"/><path fill="none" stroke="black" paint-order="fill stroke markers" d=" M 987 778 L 987 774" stroke-linejoin="bevel" stroke-miterlimit="10"/><path fill="none" stroke="black" paint-order="fill stroke markers" d=" M 1019 778 L 1019 774" stroke-linejoin="bevel" stroke-miterlimit="10"/><path fill="none" stroke="black" paint-order="fill stroke markers" d=" M 1050 778 L 1050 774" stroke-linejoin="bevel" stroke-miterlimit="10"/><path fill="none" stroke="black" paint-order="fill stroke markers" d=" M 1082 778 L 1082 774" stroke-linejoin="bevel" stroke-miterlimit="10"/><path fill="none" stroke="black" paint-order="fill stroke markers" d=" M 1113 778 L 1113 774" stroke-linejoin="bevel" stroke-miterlimit="10"/><path fill="none" stroke="black" paint-order="fill stroke markers" d=" M 1145 778 L 1145 774" stroke-linejoin="bevel" stroke-miterlimit="10"/><path fill="none" stroke="black" paint-order="fill stroke markers" d=" M 1176 778 L 1176 774" stroke-linejoin="bevel" stroke-miterlimit="10"/><path fill="none" stroke="black" paint-order="fill stroke markers" d=" M 1208 778 L 1208 774" stroke-linejoin="bevel" stroke-miterlimit="10"/><path fill="none" stroke="black" paint-order="fill stroke markers" d=" M 1239 778 L 1239 774" stroke-linejoin="bevel" stroke-miterlimit="10"/><path fill="none" stroke="black" paint-order="fill stroke markers" d=" M 1271 778 L 1271 774" stroke-linejoin="bevel" stroke-miterlimit="10"/><path fill="none" stroke="black" paint-order="fill stroke markers" d=" M 1302 778 L 1302 774" stroke-linejoin="bevel" stroke-miterlimit="10"/><path fill="none" stroke="black" paint-order="fill stroke markers" d=" M 1334 778 L 1334 774" stroke-linejoin="bevel" stroke-miterlimit="10"/><path fill="none" stroke="black" paint-order="fill stroke markers" d=" M 1365 778 L 1365 774" stroke-linejoin="bevel" stroke-miterlimit="10"/><path fill="none" stroke="black" paint-order="fill stroke markers" d=" M 1397 778 L 1397 774" stroke-linejoin="bevel" stroke-miterlimit="10"/><path fill="none" stroke="black" paint-order="fill stroke markers" d=" M 1428 778 L 1428 774" stroke-linejoin="bevel" stroke-miterlimit="10"/><path fill="none" stroke="black" paint-order="fill stroke markers" d=" M 1460 778 L 1460 774" stroke-linejoin="bevel" stroke-miterlimit="10"/><path fill="" stroke="black" paint-order="fill stroke markers" d=" M 1491 778 L 1491 774" stroke-linejoin="bevel" stroke-miterlimit="10"/><g transform="translate(515,785) rotate(0,0,0)"><text fill="" stroke="none" font-family="helvetica" font-size="8pt" font-style="normal" font-weight="normal" text-decoration="normal" x="0" y="0" text-anchor="middle" dominant-baseline="hanging">00</text><g transform="rotate(0,0,0) translate(-515,-785) translate(672,785) rotate(0,0,0)"><text fill="" stroke="none" font-family="helvetica" font-size="8pt" font-style="normal" font-weight="normal" text-decoration="normal" x="0" y="0" text-anchor="middle" dominant-baseline="hanging">20000</text><g transform="rotate(0,0,0) translate(-672,-785) translate(830,785) rotate(0,0,0)"><text fill="" stroke="none" font-family="helvetica" font-size="8pt" font-style="normal" font-weight="normal" text-decoration="normal" x="0" y="0" text-anchor="middle" dominant-baseline="hanging">40000</text><g transform="rotate(0,0,0) translate(-830,-785) translate(987,785) rotate(0,0,0)"><text fill="" stroke="none" font-family="helvetica" font-size="8pt" font-style="normal" font-weight="normal" text-decoration="normal" x="0" y="0" text-anchor="middle" dominant-baseline="hanging">60000</text><g transform="rotate(0,0,0) translate(-987,-785) translate(1145,785) rotate(0,0,0)"><text fill="" stroke="none" font-family="helvetica" font-size="8pt" font-style="normal" font-weight="normal" text-decoration="normal" x="0" y="0" text-anchor="middle" dominant-baseline="hanging">80000</text><g transform="rotate(0,0,0) translate(-1145,-785) translate(1302,785) rotate(0,0,0)"><text fill="" stroke="none" font-family="helvetica" font-size="8pt" font-style="normal" font-weight="normal" text-decoration="normal" x="0" y="0" text-anchor="middle" dominant-baseline="hanging">100000</text><g transform="rotate(0,0,0) translate(-1302,-785) translate(1460,785) rotate(0,0,0)"><text fill="" stroke="none" font-family="helvetica" font-size="8pt" font-style="normal" font-weight="normal" text-decoration="normal" x="0" y="0" text-anchor="middle" dominant-baseline="hanging">120000</text><g transform="rotate(0,0,0) translate(-1460,-785)"/></g></g></g></g></g></g></g></g><g fill="#444444"><path fill="none" stroke="black" paint-order="fill stroke markers" d=" M 468 774 L 468 5" stroke-linejoin="bevel" stroke-miterlimit="10"/><path fill="none" stroke="black" paint-order="fill stroke markers" d=" M 462 736 L 470 736" stroke-linejoin="bevel" stroke-miterlimit="10"/><path fill="none" stroke="black" paint-order="fill stroke markers" d=" M 462 659 L 470 659" stroke-linejoin="bevel" stroke-miterlimit="10"/><path fill="none" stroke="black" paint-order="fill stroke markers" d=" M 462 582 L 470 582" stroke-linejoin="bevel" stroke-miterlimit="10"/><path fill="none" stroke="black" paint-order="fill stroke markers" d=" M 462 505 L 470 505" stroke-linejoin="bevel" stroke-miterlimit="10"/><path fill="none" stroke="black" paint-order="fill stroke markers" d=" M 462 428 L 470 428" stroke-linejoin="bevel" stroke-miterlimit="10"/><path fill="none" stroke="black" paint-order="fill stroke markers" d=" M 462 351 L 470 351" stroke-linejoin="bevel" stroke-miterlimit="10"/><path fill="none" stroke="black" paint-order="fill stroke markers" d=" M 462 274 L 470 274" stroke-linejoin="bevel" stroke-miterlimit="10"/><path fill="none" stroke="black" paint-order="fill stroke markers" d=" M 462 197 L 470 197" stroke-linejoin="bevel" stroke-miterlimit="10"/><path fill="none" stroke="black" paint-order="fill stroke markers" d=" M 462 120 L 470 120" stroke-linejoin="bevel" stroke-miterlimit="10"/><path fill="" stroke="black" paint-order="fill stroke markers" d=" M 462 43 L 470 43" stroke-linejoin="bevel" stroke-miterlimit="10"/><g transform="translate(457,736) rotate(0,0,0)"><text fill="" stroke="none" font-family="helvetica" font-size="8pt" font-style="normal" font-weight="normal" text-decoration="normal" x="0" y="0" text-anchor="end" dominant-baseline="central">Texas Instruments Incorporated</text><g transform="rotate(0,0,0) translate(-457,-736) translate(457,659) rotate(0,0,0)"><text fill="" stroke="none" font-family="helvetica" font-size="8pt" font-style="normal" font-weight="normal" text-decoration="normal" x="0" y="0" text-anchor="end" dominant-baseline="central">Siémens Aktiengesellschaft</text><g transform="rotate(0,0,0) translate(-457,-659) translate(457,582) rotate(0,0,0)"><text fill="" stroke="none" font-family="helvetica" font-size="8pt" font-style="normal" font-weight="normal" text-decoration="normal" x="0" y="0" text-anchor="end" dominant-baseline="central">NEC Corporation</text><g transform="rotate(0,0,0) translate(-457,-582) translate(457,505) rotate(0,0,0)"><text fill="" stroke="none" font-family="helvetica" font-size="8pt" font-style="normal" font-weight="normal" text-decoration="normal" x="0" y="0" text-anchor="end" dominant-baseline="central">The United States of America as represented by the Secretary of the Navy</text><g transform="rotate(0,0,0) translate(-457,-505) translate(457,428) rotate(0,0,0)"><text fill="" stroke="none" font-family="helvetica" font-size="8pt" font-style="normal" font-weight="normal" text-decoration="normal" x="0" y="0" text-anchor="end" dominant-baseline="central">Fujitsu Limited</text><g transform="rotate(0,0,0) translate(-457,-428) translate(457,351) rotate(0,0,0)"><text fill="" stroke="none" font-family="helvetica" font-size="8pt" font-style="normal" font-weight="normal" text-decoration="normal" x="0" y="0" text-anchor="end" dominant-baseline="central">Hitachi, Ltd.</text><g transform="rotate(0,0,0) translate(-457,-351) translate(457,274) rotate(0,0,0)"><text fill="" stroke="none" font-family="helvetica" font-size="8pt" font-style="normal" font-weight="normal" text-decoration="normal" x="0" y="0" text-anchor="end" dominant-baseline="central">General Electric Company</text><g transform="rotate(0,0,0) translate(-457,-274) translate(457,197) rotate(0,0,0)"><text fill="" stroke="none" font-family="helvetica" font-size="8pt" font-style="normal" font-weight="normal" text-decoration="normal" x="0" y="0" text-anchor="end" dominant-baseline="central">Kabushiki Kaisha Toshiba</text><g transform="rotate(0,0,0) translate(-457,-197) translate(457,120) rotate(0,0,0)"><text fill="" stroke="none" font-family="helvetica" font-size="8pt" font-style="normal" font-weight="normal" text-decoration="normal" x="0" y="0" text-anchor="end" dominant-baseline="central">Samsung Electronics Co., Ltd.</text><g transform="rotate(0,0,0) translate(-457,-120) translate(457,43) rotate(0,0,0)"><text fill="" stroke="none" font-family="helvetica" font-size="8pt" font-style="normal" font-weight="normal" text-decoration="normal" x="0" y="0" text-anchor="end" dominant-baseline="central">International Business Machines Corporation</text><g transform="rotate(0,0,0) translate(-457,-43)"/></g></g></g></g></g></g></g></g></g></g></g></g></g></g></svg>